<svg width="187" height="306" viewBox="0 0 187 306" fill="none" xmlns="http://www.w3.org/2000/svg">
<path d="M161.92 0.026001C157.536 11.2726 152.998 21.8212 148.323 31.6487C123.061 88.4406 105.021 126.905 161.92 154.526C109.211 129.068 74.9955 167.634 43.7639 244.479C37.6682 262.651 30.1119 282.776 21.9197 305.026C29.1709 282.933 36.3841 262.637 43.7639 244.479C64.6337 182.264 68.3832 142.934 21.9197 119.526C67.6569 140.581 112.132 107.717 148.323 31.6487C152.755 21.6854 157.409 11.1579 161.92 0.026001Z" fill="#37354E"/>
<path d="M152.576 21.5127C149.974 27.381 146.507 34.749 143.588 40.4496C143.548 40.5292 143.507 40.6087 143.467 40.6882C142.29 42.9916 141.008 45.443 139.487 48.2478C139.293 48.6066 139.093 48.9731 138.889 49.3461C137.012 52.7644 134.726 56.8504 131.378 62.3235C120.192 80.8043 108.726 93.5253 105.034 97.2593C97.6095 104.79 89.1951 112.72 75.2714 119.368C74.0163 119.948 72.6604 120.529 71.2906 121.063C70.1764 121.498 69.2523 121.805 69.2141 121.802C69.1892 121.793 70.066 121.475 71.179 121.043C72.5174 120.524 73.8507 119.955 75.0744 119.394C75.08 119.391 75.0857 119.389 75.0913 119.386C89.0987 112.722 97.3157 104.935 104.589 97.6338C108.38 93.8379 120.164 80.826 131.582 61.8761C134.964 56.3255 137.268 52.1874 139.138 48.7653C139.338 48.3989 139.532 48.0404 139.721 47.6909C139.725 47.6827 139.73 47.6745 139.734 47.6662C141.261 44.8374 142.497 42.4608 143.608 40.2811C143.632 40.2339 143.656 40.1866 143.68 40.1394C146.632 34.3587 150.014 27.1432 152.54 21.4484C153.03 20.3475 153.434 19.4593 153.444 19.4774C153.453 19.4958 153.066 20.4125 152.576 21.5127ZM38.7575 257.68C40.9602 251.838 44.0706 243.999 46.9318 237.274C49.8493 230.381 52.656 224.289 53.9969 221.46C55.3119 218.677 56.8206 215.538 58.6499 211.915C59.0801 211.063 59.5272 210.187 59.9907 209.29C61.5033 206.362 63.2799 203.038 65.2685 199.545C72.6666 186.569 78.5868 178.741 83.0211 173.43C83.9485 172.324 84.8172 171.328 85.6346 170.418C85.6359 170.416 85.6373 170.415 85.6387 170.413C88.8092 166.894 91.3277 164.486 93.7425 162.368C98.0953 158.604 101.876 155.892 106.876 153.221C113.653 149.37 124.632 146.719 131.857 147.02C132.254 147.022 132.662 147.029 133.076 147.041C138.253 147.223 144.746 147.996 153.829 151.332C156.761 152.423 159.233 153.504 161.814 154.745L162.026 154.308C157.83 152.273 154.205 150.257 150.992 148.24C149.474 147.287 148.029 146.318 146.74 145.4C143.383 143.01 140.558 140.62 138.145 138.222C122.708 122.588 124.475 107.671 124.78 100.472C125.339 94.5083 126.152 91.2789 126.676 88.8985C126.847 88.1655 126.992 87.5742 127.14 86.9856C128.475 81.7118 129.968 77.0323 132 71.3978C132.448 70.1628 132.94 68.8399 133.453 67.4988C135.168 63.0172 136.535 59.7051 137.627 57.0654C138.096 55.9358 138.51 54.9468 138.909 54.0024C138.916 53.985 138.923 53.9676 138.931 53.9501C138.986 53.8186 139.041 53.688 139.096 53.5582C139.138 53.4604 139.179 53.3625 139.22 53.2646C139.237 53.2259 139.251 53.1913 139.262 53.1655C139.27 53.145 139.277 53.1291 139.281 53.1188C139.282 53.1169 139.283 53.1149 139.284 53.113C139.362 52.9269 139.43 52.7668 139.444 52.7339C139.468 52.6765 139.49 52.6257 139.501 52.5997C139.559 52.4624 139.635 52.2854 139.685 52.1677C139.813 51.8682 140.045 51.3272 140.384 50.5397C140.682 49.8465 140.969 49.1786 141.333 48.3382C141.356 48.2852 141.379 48.2323 141.402 48.1793C141.756 47.3603 142.177 46.3903 142.706 45.1804C143.178 44.1004 143.631 43.1031 143.71 42.9636C143.79 42.8243 143.464 43.5972 142.99 44.6798C142.504 45.7916 142.098 46.7236 141.744 47.5406C141.721 47.5928 141.698 47.6449 141.676 47.697C141.304 48.5545 140.955 49.3626 140.583 50.2283C140.458 50.5182 140.329 50.8163 140.21 51.0944C139.993 51.601 139.741 52.1914 139.446 52.8863C139.387 53.026 139.326 53.1701 139.263 53.3172C138.864 54.2614 138.403 55.3552 137.894 56.5775C136.681 59.4992 135.158 63.1839 133.307 68.0491C132.811 69.3561 132.347 70.611 131.909 71.8262C129.879 77.4836 128.274 82.5434 126.926 88.114C126.743 88.8747 126.569 89.6314 126.398 90.4183C125.922 92.744 125.264 95.5249 124.793 101.045C124.599 107.901 122.794 122.425 138.042 138.036C140.551 140.552 143.589 143.105 146.995 145.508C148.262 146.405 149.671 147.343 151.085 148.229C154.308 150.249 157.902 152.242 162.052 154.254L161.788 154.798C159.362 153.63 157.009 152.598 154.299 151.571C145.434 148.258 139.181 147.41 133.996 147.137C133.819 147.128 133.642 147.121 133.465 147.115C133.249 147.107 133.019 147.1 132.799 147.095C125.099 146.629 113.387 149.383 105.975 153.775C101.263 156.399 97.634 159.035 93.3501 162.793C91.2515 164.665 89.1066 166.687 85.9696 170.134C85.1203 171.073 84.1913 172.13 83.1683 173.347C78.649 178.743 72.6391 186.702 65.1819 199.817C63.2571 203.208 61.5598 206.383 60.0548 209.294C59.582 210.209 59.1191 211.116 58.6666 212.012C56.8367 215.636 55.1308 219.184 53.6396 222.362C52.3924 225.01 49.6901 230.898 46.858 237.6C44.0345 244.253 41.1768 251.471 39.2212 256.63C39.0192 257.161 38.8155 257.699 38.6122 258.238C36.8461 262.917 35.1198 267.649 33.7481 271.527C30.7077 280.174 26.4889 292.436 22.3249 305.159L21.5195 304.879C26.1072 292.41 30.908 279.546 34.6226 269.301C34.7219 269.027 34.821 268.754 34.9199 268.481C43.605 244.743 48.9801 227.173 50.6145 221.141C50.6934 220.86 50.7647 220.605 50.8285 220.376C50.8854 220.171 50.9366 219.987 50.9816 219.824C51.645 217.424 52.2409 215.162 52.807 212.901C52.8381 212.777 52.869 212.653 52.8998 212.529C53.4866 210.169 54.1172 207.506 54.7476 204.559C57.1639 193.257 58.1905 183.929 58.1487 175.852C58.1407 174.334 58.0943 172.869 58.0141 171.469C58.0139 171.465 58.0136 171.461 58.0134 171.457C57.6548 165.233 56.6149 159.767 54.9689 154.81C51.9016 145.757 47.8133 140.51 44.5717 136.761C43.5093 135.559 42.5435 134.56 41.5501 133.591C39.414 131.518 37.4259 129.859 35.3195 128.262C31.2845 125.22 27.3312 122.85 23.3169 120.741C22.953 120.55 22.5863 120.361 22.2166 120.172C22.0518 120.088 21.8865 120.005 21.7205 119.921L22.1048 119.124C26.4603 121.118 30.8695 122.69 35.7286 123.804C36.8773 124.067 37.874 124.267 37.8908 124.287C37.9159 124.308 36.9561 124.143 35.8032 123.881C30.9628 122.778 26.5445 121.221 22.08 119.178L21.7472 119.868C21.8027 119.896 21.8581 119.924 21.9135 119.952C22.2872 120.141 22.6593 120.331 23.0287 120.523C27.071 122.631 31.0663 125 35.2094 128.105C37.2255 129.626 39.1517 131.215 41.2419 133.212C42.2566 134.185 43.2748 135.221 44.3876 136.464C47.7068 140.255 51.8827 145.563 54.9973 154.708C56.6317 159.608 57.6821 165.006 58.0594 171.231C58.1441 172.64 58.195 174.111 58.2067 175.654C58.2664 183.762 57.2464 193.137 54.8195 204.505C54.2224 207.299 53.6358 209.799 53.0487 212.175C53.0156 212.309 52.9824 212.443 52.9491 212.577C52.3936 214.809 51.765 217.211 51.0661 219.74C50.9709 220.085 50.8487 220.525 50.6994 221.057C49.0647 227.1 43.6698 244.743 34.9506 268.57C34.9235 268.644 34.8964 268.719 34.8692 268.794C29.0629 284.752 25.6789 293.769 23.2186 300.506C22.6431 302.076 22.1064 303.54 21.6041 304.91L22.2391 305.131C23.33 301.791 24.2276 299.087 25.0056 296.761C25.2155 296.134 25.4141 295.542 25.6035 294.978C26.4329 292.511 27.1028 290.539 27.7609 288.605C29.7343 282.811 31.2334 278.481 32.9903 273.473C34.5281 269.094 36.4026 263.941 38.1478 259.298C38.1504 259.292 38.153 259.285 38.1555 259.278C38.3598 258.734 38.561 258.2 38.7575 257.68ZM149.673 29.3771C150.163 28.2743 150.572 27.3866 150.582 27.4033C150.592 27.4212 150.2 28.3382 149.709 29.4414C148.546 32.0576 147.373 34.6869 146.207 37.3062C145.719 38.4016 145.32 39.268 145.31 39.2516C145.3 39.2337 145.683 38.3383 146.171 37.2421C147.337 34.6218 148.509 31.9941 149.673 29.3771ZM36.7016 262.285C37.1146 261.172 37.5393 260.078 37.649 259.834C37.758 259.591 37.5109 260.286 37.0981 261.393C36.8804 261.977 36.5188 262.949 36.041 264.247C33.6087 270.814 28.0793 286.272 21.9772 305.045L21.8628 305.005C24.6111 297.496 27.4921 289.689 30.4718 281.565C31.3319 279.219 32.1114 277.087 32.8531 275.051C35.9734 266.401 38.5395 259.518 44.1773 242.767C51.3529 220.643 58.5599 197.996 58.4113 174.533C59.1989 150.75 43.1452 129.197 21.8726 119.619L21.9634 119.431C46.9254 132.23 77.6651 123.574 97.3828 104.99C113.381 90.8338 125.696 73.0689 136.272 54.572C145.412 39.2214 158.394 9.24396 161.028 2.02072C161.474 0.891841 161.843 -0.0174271 161.853 0.000268999C161.864 0.0182067 161.513 0.955384 161.067 2.08369C158.451 9.25507 145.511 39.14 136.414 54.4407C125.865 72.9167 113.602 90.6443 97.6529 104.832C77.9275 123.528 47.0398 132.373 21.9295 119.505L21.9091 119.547C43.223 129.123 59.3305 150.759 58.5264 174.597C58.6657 198.113 51.4505 220.771 44.2705 242.901C38.6836 259.492 36.1559 266.069 33.0459 274.695C32.3059 276.727 31.5153 278.891 30.6505 281.25C27.6226 289.507 24.7003 297.426 21.919 305.026C27.8436 286.808 33.1759 271.846 35.6129 265.236C36.0903 263.934 36.4724 262.902 36.7016 262.285ZM58.8457 210.834C64.9281 198.823 74.458 182.136 85.7955 169.752C91.2701 163.7 97.126 158.775 102.253 155.508C110.194 150.489 116.029 148.712 121.756 147.571C121.818 147.56 121.88 147.548 121.942 147.537C127.697 146.556 133.688 146.089 143.075 147.935C148.574 149.047 155.18 151.238 161.928 154.51L161.912 154.542C157.036 152.173 152.338 149.581 147.667 146.384C147.658 146.378 147.65 146.373 147.641 146.367C136.447 139.05 127.874 127.599 125.726 117.94C120.512 83.6171 135.691 64.2682 138.307 54.4919C145.628 37.3902 154.565 18.2291 161.746 0.635354C162.554 -1.32229 161.259 2.02222 159.769 5.56532C159.716 5.69337 159.662 5.82134 159.608 5.94924C159.102 7.15571 158.637 8.25528 157.997 9.76191C157.066 11.956 156.386 13.5386 155.737 15.0452C154.14 18.9759 142.051 45.6918 138.027 55.3052C135.652 64.6018 120.646 83.5736 125.878 118.001C128.013 127.422 136.215 138.744 147.444 146.158C147.473 146.179 147.503 146.2 147.533 146.22C152.232 149.453 156.98 152.08 161.938 154.489L161.902 154.563C155.203 151.314 148.606 149.115 143.076 147.995C133.355 146.079 127.094 146.651 121.288 147.722C121.231 147.734 121.175 147.745 121.118 147.756C115.466 148.961 109.941 150.726 102.296 155.551C97.0607 158.886 91.1589 163.883 85.6672 169.981C74.4068 182.35 65.0268 198.786 58.9863 210.688C58.4362 211.769 57.9547 212.704 57.9231 212.73C57.8808 212.779 58.2947 211.918 58.8457 210.834ZM58.6447 210.418C74.5881 178.533 102.456 138.261 142.797 147.445C148.425 148.548 155.214 150.785 162.107 154.137L161.731 154.914C156.794 152.509 152.049 149.881 147.339 146.64C147.213 146.553 147.088 146.466 146.963 146.379C135.714 138.901 127.426 127.357 125.349 117.832C120.255 83.2407 135.454 63.8902 138.076 54.0938C142.001 44.9716 143.15 42.4927 144.809 38.7265C144.854 38.6259 144.899 38.5253 144.944 38.4247C144.946 38.418 144.949 38.4113 144.952 38.4046C145.008 38.2776 145.055 38.171 145.079 38.1161C145.128 38.0042 145.169 37.9131 145.184 37.8789C145.219 37.8 145.248 37.7339 145.258 37.7103C145.301 37.6141 145.35 37.504 145.382 37.433C145.675 36.7739 146.6 34.6974 147.346 33.0294C148.093 31.3554 148.629 30.1589 149.198 28.8862C149.255 28.7575 149.313 28.6286 149.371 28.4997C149.886 27.3468 150.442 26.1021 151.233 24.3202C151.716 23.2307 152.073 22.4554 152.028 22.597C151.983 22.7392 151.555 23.7418 151.072 24.8285C150.244 26.6924 149.641 28.0422 149.128 29.1901C149.071 29.3178 149.013 29.4453 148.956 29.5728C148.412 30.7901 147.944 31.8356 147.275 33.3325C146.299 35.5217 145.585 37.1267 144.937 38.5854C143.222 42.4799 141.891 45.35 137.796 54.9056C135.412 64.2287 120.381 83.0394 125.403 117.805C127.477 127.336 135.772 138.871 147.005 146.336C147.133 146.426 147.261 146.515 147.39 146.604C152.094 149.839 156.831 152.461 161.757 154.861L162.082 154.191C155.191 150.84 148.412 148.607 142.798 147.505C101.998 138.612 75.0557 178.363 58.7869 210.269C55.6042 216.515 52.9114 222.268 50.4613 227.74C43.3907 243.639 38.6419 256.186 34.2687 268.165C33.3119 270.807 30.804 277.691 27.3754 287.709C26.3778 290.623 25.258 293.934 24.1135 297.367C23.3215 299.742 22.4885 302.262 21.6163 304.926L22.2193 305.136C24.7125 298.347 27.4472 290.949 30.4544 282.757C31.3244 280.387 32.0839 278.311 32.8354 276.25C35.9486 267.634 38.5342 260.8 44.1882 244.094C51.2447 223.712 61.2492 188.153 58.5023 168.431C57.5169 158.705 55.3726 153.466 53.867 149.894C53.4297 148.897 53.0159 148.034 52.6188 147.251C51.5807 145.22 50.6623 143.654 49.375 141.733C41.8909 131.02 33.4184 125.108 22.0681 119.231L21.7817 119.826C25.2116 121.398 28.8926 122.811 33.1025 123.946C34.2727 124.261 35.2885 124.506 35.3731 124.543C35.4573 124.578 34.5774 124.396 33.4063 124.088C29.0669 122.941 25.2857 121.497 21.757 119.879L22.0948 119.178C33.3923 125.027 41.9695 130.978 49.4841 141.789C50.8275 143.802 51.7984 145.483 52.841 147.561C53.2273 148.337 53.6211 149.175 54.0314 150.123C55.4941 153.647 57.6023 158.84 58.5708 168.527C61.2852 188.233 51.2955 223.74 44.2614 244.061C38.6602 260.616 36.1332 267.298 33.0289 275.893C32.2792 277.949 31.509 280.055 30.6347 282.438C27.5772 290.768 24.8007 298.278 22.275 305.157L21.56 304.908C22.3969 302.351 23.1973 299.929 23.9592 297.642C25.1037 294.207 26.2155 290.917 27.2105 288.008C30.7064 277.788 33.0623 271.33 33.8827 269.053C38.3936 256.647 43.3489 243.559 50.5001 227.508C52.9226 222.104 55.5693 216.462 58.6447 210.418ZM97.0727 105.862C96.146 106.665 95.3305 107.323 95.2541 107.365C95.178 107.406 95.8696 106.82 96.7961 106.023C101.578 101.888 104.792 98.5465 107.216 95.9625C111.724 91.0774 113.741 88.5671 116.679 84.8649C124.314 75.1283 130.731 65.0317 136.061 55.7384C144.894 40.2952 150.879 26.9099 153.963 19.948C154.452 18.8364 154.855 17.9401 154.865 17.9582C154.874 17.977 154.488 18.9018 153.999 20.0124C150.936 26.9262 144.999 40.2088 136.204 55.6081C130.87 64.919 124.444 75.0501 116.761 84.8567C113.908 88.4531 112.012 90.8216 107.616 95.6193C105.218 98.1918 101.967 101.607 97.0727 105.862Z" fill="#37354E"/>
<path d="M7.00989 193.682C7.22925 189.197 7.46424 183.098 7.97768 178.625C7.98483 178.562 7.992 178.498 7.99919 178.435C8.20906 176.583 8.45262 174.715 8.77011 172.484C8.81252 172.182 8.85657 171.874 8.90176 171.559C9.30512 168.765 9.82126 165.365 10.6047 160.886C13.2365 145.701 16.1489 133.961 17.0901 130.298C18.9216 123.214 21.3499 115.364 25.6886 105.218C26.0853 104.298 26.4974 103.367 26.9247 102.423C27.271 101.658 27.6812 101.089 27.837 101.14C27.9928 101.193 27.8356 101.843 27.4905 102.605C27.0733 103.525 26.6718 104.434 26.2851 105.328C26.2833 105.332 26.2816 105.337 26.2798 105.341C21.9216 115.521 19.5643 123.17 17.7646 130.068C16.803 133.782 13.8022 145.798 11.1325 161.317C10.3467 165.841 9.83086 169.28 9.42939 172.09C9.38535 172.401 9.34364 172.695 9.3051 172.967C9.30416 172.973 9.30321 172.98 9.30227 172.986C8.9863 175.23 8.75557 177.02 8.55643 178.791C8.55234 178.829 8.54826 178.867 8.54418 178.904C8.029 183.423 7.81008 189.411 7.5984 193.739C7.55559 194.582 7.39218 195.257 7.22953 195.242C7.06711 195.226 6.96714 194.525 7.00989 193.682ZM170.71 127.866C172.089 132.251 173.404 138.096 174.306 143.27C175.24 148.546 175.841 153.524 176.049 155.654C176.268 157.825 176.575 160.252 176.924 163.207C177.004 163.884 177.085 164.59 177.168 165.324C177.44 167.745 177.722 170.512 177.937 173.302C178.741 183.795 179.018 191.223 179.204 195.982C179.242 196.999 179.275 197.95 179.303 198.844C179.303 198.845 179.303 198.847 179.303 198.848C179.408 202.224 179.453 204.791 179.404 207.168C179.38 208.33 179.352 209.439 179.319 210.526L181.92 207.925C179.124 207.838 176.519 207.741 173.544 207.59C167.889 207.304 159.835 207.338 154.594 207.535C154.306 207.546 154.012 207.557 153.714 207.568C149.914 207.712 145.236 207.888 138.221 208.02C132.392 208.129 127.312 208.12 122.816 208.09C121.528 208.081 120.298 208.07 119.118 208.06C116.138 208.034 113.472 208.011 110.96 208.025C95.3821 208.107 86.3985 208.001 80.7523 207.84C76.4098 207.716 73.9841 207.557 72.2342 207.442C71.7053 207.408 71.2383 207.376 70.7986 207.352C66.8774 207.134 63.2773 207.036 58.9467 206.919C57.9856 206.893 56.9856 206.865 55.941 206.836C52.4468 206.737 49.8431 206.754 47.8012 206.796C46.9082 206.814 46.1222 206.837 45.3812 206.858C45.3675 206.859 45.3538 206.859 45.3401 206.86C45.2368 206.863 45.1343 206.866 45.0325 206.869C44.9558 206.871 44.8792 206.874 44.8024 206.876C44.7722 206.879 44.7451 206.881 44.7249 206.882C44.7089 206.884 44.6964 206.885 44.6884 206.885C44.6869 206.886 44.6854 206.886 44.6839 206.886C44.5385 206.897 44.4133 206.902 44.3876 206.903C44.3428 206.904 44.3031 206.905 44.2828 206.906C44.1756 206.908 44.0374 206.91 43.9455 206.911C43.7095 206.913 43.2992 206.915 42.6649 206.918C42.1126 206.927 41.5827 206.941 40.9193 206.96C40.8776 206.961 40.8358 206.962 40.794 206.963C40.1471 206.981 39.39 207.002 38.44 207.022C37.5757 207.041 36.7808 206.924 36.6649 206.762C36.5494 206.6 37.1565 206.454 38.0208 206.435C38.9158 206.416 39.6248 206.397 40.2722 206.379C40.3132 206.377 40.3542 206.376 40.3952 206.375C41.0701 206.356 41.7094 206.339 42.3983 206.328C42.6289 206.325 42.8666 206.322 43.0887 206.32C43.4885 206.313 43.9435 206.3 44.4879 206.285C44.5972 206.281 44.7099 206.279 44.8252 206.275C45.5649 206.253 46.4263 206.228 47.3979 206.208C49.6719 206.162 52.5531 206.144 56.3557 206.252C57.3529 206.28 58.3195 206.306 59.2634 206.332C63.6111 206.45 67.4794 206.555 71.6417 206.786C72.2128 206.817 72.7606 206.853 73.3463 206.892C75.0821 207.006 77.1548 207.142 81.1693 207.256C86.548 207.409 95.3178 207.516 110.807 207.434C113.444 207.42 116.288 207.445 119.318 207.471C120.475 207.481 121.661 207.49 122.871 207.498C127.297 207.529 132.217 207.537 137.845 207.431C144.703 207.303 149.254 207.131 153.037 206.989C153.168 206.984 153.298 206.979 153.429 206.973C153.591 206.967 153.752 206.961 153.912 206.955C159.497 206.746 168.067 206.704 174.314 207.02C176.996 207.156 179.365 207.246 181.92 207.328L178.722 210.526C178.76 209.316 178.791 208.071 178.817 206.745C178.857 204.681 178.82 202.485 178.721 199.178C178.693 198.25 178.659 197.234 178.618 196.114C178.43 191.274 178.149 183.743 177.332 173.159C177.122 170.468 176.853 167.812 176.583 165.412C176.499 164.665 176.415 163.935 176.331 163.223C175.981 160.26 175.636 157.556 175.379 155.059C175.186 153.113 174.589 148.242 173.682 143.147C172.789 138.055 171.565 132.689 170.364 128.816C170.242 128.42 170.118 128.022 169.994 127.626C168.906 124.164 167.818 121.038 166.613 118.153C161.278 106.23 152.454 84.3935 142.703 72.4401C142.578 72.2785 142.453 72.1177 142.328 71.9577C131.484 57.9192 119.934 52.0046 116.209 50.3324C116.033 50.2512 115.872 50.1784 115.728 50.1136C115.599 50.0552 115.474 50.0001 115.368 49.9531C113.761 49.2448 112.325 48.7122 110.818 48.2213C110.736 48.1946 110.653 48.1681 110.571 48.1418C108.984 47.6371 107.292 47.1675 105.248 46.715C97.7065 45.0696 91.3061 45.4147 85.9433 46.3793C84.9357 46.5631 83.9933 46.7648 83.0677 46.9883C83.0649 46.9889 83.0622 46.9896 83.0595 46.9902C78.9826 47.9808 75.4592 49.3226 72.2259 50.8263C66.3306 53.6104 62.6272 56.3404 59.9731 58.3766C59.1267 59.0351 58.3521 59.6673 57.6248 60.2812C56.0604 61.6025 54.6617 62.883 53.3822 64.1017C50.9337 66.431 48.6235 68.9533 46.6488 71.3164C46.4712 71.5286 46.294 71.7416 46.1175 71.956C43.995 74.5294 41.7939 77.4738 39.8137 80.3317C39.3439 81.0081 38.8482 81.5065 38.7029 81.4297C38.5584 81.3527 38.8204 80.7263 39.2924 80.046C41.2144 77.2693 43.376 74.3615 45.5066 71.7656C45.6849 71.5481 45.864 71.3308 46.0441 71.1146C48.0008 68.7604 50.3783 66.1492 52.8849 63.7592C54.1318 62.5692 55.4424 61.3613 56.9905 60.042C57.7308 59.4121 58.5319 58.752 59.4301 58.0488C62.1235 55.9685 65.9228 53.1549 71.921 50.3161C75.1484 48.8124 78.6533 47.4657 82.7751 46.4508C83.7187 46.2201 84.6737 46.0121 85.707 45.8209C91.145 44.8284 97.6561 44.4606 105.331 46.1279C107.282 46.5582 108.916 47.0016 110.512 47.5007C110.602 47.529 110.692 47.5576 110.782 47.5865C112.293 48.0711 113.826 48.6291 115.541 49.3833C115.772 49.4852 116.059 49.6133 116.394 49.7673C120.162 51.4505 131.883 57.4479 142.823 71.6309C142.857 71.6751 142.892 71.7193 142.926 71.7636C150.123 81.1952 153.087 87.3407 155.616 91.8347C157.636 95.5798 158.754 98.026 159.782 100.355C159.972 100.789 160.151 101.201 160.32 101.597C161.051 103.307 161.614 104.692 162.201 106.084C163.878 110.076 165.087 112.932 166.657 116.553C168.017 119.729 169.265 123.311 170.335 126.677C170.336 126.682 170.338 126.687 170.34 126.692C170.466 127.089 170.59 127.482 170.71 127.866ZM25.925 207.415C25.0536 207.41 24.3539 207.274 24.3618 207.111C24.3707 206.948 25.085 206.819 25.9569 206.824C28.0344 206.836 30.1119 206.847 32.1894 206.859C33.0608 206.864 33.7606 207 33.7526 207.163C33.7437 207.326 33.0293 207.454 32.1575 207.45C30.08 207.438 28.0025 207.426 25.925 207.415ZM172.607 123.615C172.865 124.417 172.987 125.262 172.882 125.49C172.778 125.717 172.49 125.241 172.234 124.437C172.099 124.012 171.874 123.315 171.565 122.389C169.254 115.546 162.691 96.0893 150.542 78.0633C149.523 76.5507 148.593 75.245 147.696 74.0338C143.639 68.812 140.272 64.5527 130.733 56.5672C110.657 38.9203 79.0072 38.9073 58.3116 55.7598C37.0506 71.9159 24.2514 96.6443 16.3708 122.022C11.9127 136.519 8.79182 152.002 6.89157 167.03C5.04637 179.766 3.8426 203.151 3.9388 208.924C3.93027 209.816 3.79439 210.535 3.63121 210.526C3.46823 210.516 3.33986 209.782 3.34845 208.889C3.25304 203.15 4.45316 179.799 6.28802 167.091C8.18378 152.047 11.2933 136.575 15.7383 122.063C23.6361 96.5696 36.2556 71.6065 57.6795 55.048C78.4661 37.7483 111.176 37.524 131.606 55.5923C141.222 63.667 143.921 68.2315 148.01 73.4618C148.915 74.6779 149.857 75.9926 150.892 77.522C162.957 95.3455 169.522 114.495 171.904 121.487C172.226 122.441 172.463 123.166 172.607 123.615ZM180.128 163.575C181.411 173.357 182.388 187.406 182.584 199.2C182.664 203.165 182.684 207.02 182.667 210.526L182.679 211.261L181.92 211.273C180.27 211.266 178.715 211.259 177.276 211.255C170.475 211.233 166.193 211.092 161.947 210.952C161.902 210.95 161.856 210.949 161.81 210.947C157.567 210.807 153.32 210.669 146.413 210.647C139.448 210.626 129.811 210.722 120.091 210.819C120.083 210.819 120.075 210.819 120.068 210.819C110.399 210.915 100.592 211.312 93.5042 211.289C68.8066 211.21 53.5781 210.804 45.8779 210.485C32.4088 209.928 17.1321 210.553 3.37204 209.848C1.85448 209.692 4.41414 209.242 7.21176 209.372C7.3128 209.375 7.41379 209.379 7.51485 209.383C8.477 209.417 9.31897 209.444 10.5046 209.466C12.2226 209.485 13.5011 209.486 14.6679 209.487C17.7294 209.489 38.9824 209.597 46.5023 209.908C53.81 210.21 68.7191 209.902 93.5749 209.982C100.531 210.004 110.142 210.325 119.863 210.228C119.889 210.228 119.916 210.228 119.943 210.227C129.592 210.131 139.323 210.034 146.404 210.056C153.561 210.079 158.001 210.224 162.3 210.366C162.342 210.367 162.384 210.369 162.426 210.37C166.632 210.509 170.717 210.644 177.267 210.664C178.715 210.669 180.273 210.675 181.92 210.683L182.079 210.68L182.076 210.526C182.093 206.952 182.071 203.038 181.989 199.026C181.788 187.313 180.822 173.457 179.559 163.787C179.448 162.91 179.482 162.157 179.639 162.098C179.796 162.039 180.016 162.698 180.128 163.575ZM183.806 163.332C186.079 178.997 186.978 194.466 186.879 210.526L186.96 215.401L181.92 215.485C170.109 215.403 158.343 215.199 146.677 214.9C139.636 214.877 129.811 214.832 120 214.785C119.889 214.785 119.778 214.784 119.667 214.783C109.961 214.737 100.298 214.692 93.3607 214.669C68.6633 214.59 53.3776 214.483 45.6774 214.165C38.4977 213.868 36.5045 213.867 33.5498 213.865C33.4693 213.865 33.3888 213.864 33.3082 213.864C33.3029 213.865 33.2976 213.865 33.2923 213.866C33.191 213.873 33.1059 213.878 33.0621 213.879C32.9729 213.883 32.9002 213.885 32.873 213.885C32.8101 213.887 32.7573 213.887 32.7386 213.887C32.6618 213.887 32.574 213.887 32.5175 213.887C31.9914 213.884 30.3435 213.866 29.0378 213.842C27.6998 213.817 26.7461 213.785 25.7404 213.749C25.6387 213.745 25.5369 213.742 25.4351 213.738C24.5287 213.706 23.5423 213.671 22.1218 213.633C21.2563 213.61 20.6413 213.461 20.7477 213.299C20.8546 213.138 21.6419 213.026 22.5069 213.049C24.0014 213.089 25.0509 213.126 25.9615 213.158C26.0625 213.162 26.1635 213.165 26.2646 213.169C27.227 213.203 28.0704 213.23 29.2566 213.253C30.9742 213.271 32.251 213.272 33.4176 213.273C36.4766 213.275 38.7801 213.277 46.2995 213.588C53.607 213.891 68.4946 213.999 93.3516 214.079C100.302 214.101 109.976 214.147 119.674 214.193C119.788 214.193 119.902 214.194 120.015 214.194C129.833 214.24 139.643 214.287 146.668 214.309C158.49 214.346 170.207 214.312 181.92 214.296L185.752 214.232L185.69 210.526C185.657 194.592 184.896 179.354 183.237 163.547C182.583 158.364 181.921 153.938 181.194 149.635C179.011 136.845 176.604 127.225 173.649 118.581C172.965 116.601 171.286 111.212 168.507 104.224C167.629 102.016 166.64 99.6502 165.531 97.1796C162.884 91.2902 159.251 84.0629 154.307 76.6021C153.261 75.0238 152.303 73.6588 151.38 72.3909C147.263 67.0138 144.124 62.3527 134.168 53.8143C122.372 42.0061 93.5397 34.9118 79.221 40.5657C71.9814 42.5819 68.3897 44.5189 65.6859 45.858C64.9731 46.2258 64.348 46.5617 63.776 46.8781C62.2822 47.7083 61.1294 48.395 59.6379 49.3625C49.2155 56.4145 42.8938 62.8313 34.5277 74.4351C34.0305 75.144 33.4931 75.6984 33.3214 75.6598C33.1501 75.6213 33.4107 74.9992 33.9096 74.2843C42.3031 62.5975 48.7243 56.0187 59.3807 48.8246C60.95 47.8085 62.1952 47.0728 63.7287 46.2283C64.2976 45.9164 64.9067 45.5918 65.5886 45.2424C68.2908 43.9141 71.8566 41.9959 79.1387 39.9759C93.577 34.2905 122.675 41.4798 134.511 53.3311C144.447 61.8445 147.537 66.4135 151.691 71.8119C152.623 73.0843 153.591 74.4578 154.654 76.0529C159.654 83.5639 163.318 90.8331 165.98 96.7327C167.094 99.2043 168.086 101.568 168.964 103.771C171.828 110.959 173.388 116 173.994 117.723C177.103 126.719 179.606 136.755 181.806 149.705C182.521 153.949 183.17 158.311 183.806 163.332ZM12.2278 120.062C12.4956 119.2 12.8589 118.501 13.0335 118.492C13.2081 118.483 13.1284 119.164 12.8607 120.023C11.4313 124.629 10.6465 127.597 9.97309 130.177C8.77896 134.836 8.21807 137.358 7.48075 140.598C5.52251 149.285 4.07527 157.98 3.07599 165.709C1.39735 178.64 0.854649 189.404 0.597521 194.814C0.557131 195.677 0.395687 196.369 0.23296 196.354C0.0705342 196.338 -0.0315793 195.622 0.00882673 194.758C0.265073 189.38 0.804313 178.67 2.47282 165.77C3.47287 158.009 4.9204 149.276 6.8949 140.509C7.6128 137.353 8.13866 134.978 9.30465 130.397C9.97472 127.812 10.7718 124.772 12.2278 120.062Z" fill="#37354E"/>
</svg>
